<svg width="20" height="20" viewBox="0 0 20 20" fill="none" xmlns="http://www.w3.org/2000/svg">
<mask id="mask0_55052_25699" style="mask-type:alpha" maskUnits="userSpaceOnUse" x="-2" y="-2" width="24" height="24">
<rect x="-2" y="-2" width="24" height="24" fill="#D9D9D9"/>
</mask>
<g mask="url(#mask0_55052_25699)">
<path d="M9.99999 16.0999L12.325 13.7749C12.525 13.5749 12.7667 13.4749 13.05 13.4749C13.3333 13.4749 13.575 13.5749 13.775 13.7749C13.975 13.9749 14.075 14.2166 14.075 14.4999C14.075 14.7832 13.975 15.0249 13.775 15.2249L10.7 18.2999C10.6 18.3999 10.4917 18.4707 10.375 18.5124C10.2583 18.5541 10.1333 18.5749 9.99999 18.5749C9.86665 18.5749 9.74165 18.5541 9.62499 18.5124C9.50832 18.4707 9.39999 18.3999 9.29999 18.2999L6.22499 15.2249C6.02499 15.0249 5.92499 14.7832 5.92499 14.4999C5.92499 14.2166 6.02499 13.9749 6.22499 13.7749C6.42499 13.5749 6.66665 13.4749 6.94999 13.4749C7.23332 13.4749 7.47499 13.5749 7.67499 13.7749L9.99999 16.0999ZM9.99999 3.9999L7.67499 6.3249C7.47499 6.5249 7.23332 6.6249 6.94999 6.6249C6.66665 6.6249 6.42499 6.5249 6.22499 6.3249C6.02499 6.1249 5.92499 5.88324 5.92499 5.5999C5.92499 5.31657 6.02499 5.0749 6.22499 4.8749L9.29999 1.7999C9.39999 1.6999 9.50832 1.62907 9.62499 1.5874C9.74165 1.54574 9.86665 1.5249 9.99999 1.5249C10.1333 1.5249 10.2583 1.54574 10.375 1.5874C10.4917 1.62907 10.6 1.6999 10.7 1.7999L13.775 4.8749C13.975 5.0749 14.075 5.31657 14.075 5.5999C14.075 5.88324 13.975 6.1249 13.775 6.3249C13.575 6.5249 13.3333 6.6249 13.05 6.6249C12.7667 6.6249 12.525 6.5249 12.325 6.3249L9.99999 3.9999Z" fill="white"/>
</g>
</svg>
