<svg width="24" height="24" viewBox="0 0 24 24" fill="none" xmlns="http://www.w3.org/2000/svg">
<mask id="mask0_54773_24698" style="mask-type:alpha" maskUnits="userSpaceOnUse" x="0" y="0" width="24" height="24">
<rect width="24" height="24" fill="#D9D9D9"/>
</mask>
<g mask="url(#mask0_54773_24698)">
<path d="M10.825 22C10.375 22 9.98751 21.85 9.66251 21.55C9.33751 21.25 9.14168 20.8833 9.07501 20.45L8.85001 18.8C8.63334 18.7167 8.42918 18.6167 8.23751 18.5C8.04584 18.3833 7.85834 18.2583 7.67501 18.125L6.12501 18.775C5.70834 18.9583 5.29168 18.975 4.87501 18.825C4.45834 18.675 4.13334 18.4083 3.90001 18.025L2.72501 15.975C2.49168 15.5917 2.42501 15.1833 2.52501 14.75C2.62501 14.3167 2.85001 13.9583 3.20001 13.675L4.52501 12.675C4.50834 12.5583 4.50001 12.4458 4.50001 12.3375V11.6625C4.50001 11.5542 4.50834 11.4417 4.52501 11.325L3.20001 10.325C2.85001 10.0417 2.62501 9.68333 2.52501 9.25C2.42501 8.81667 2.49168 8.40833 2.72501 8.025L3.90001 5.975C4.13334 5.59167 4.45834 5.325 4.87501 5.175C5.29168 5.025 5.70834 5.04167 6.12501 5.225L7.67501 5.875C7.85834 5.74167 8.05001 5.61667 8.25001 5.5C8.45001 5.38333 8.65001 5.28333 8.85001 5.2L9.07501 3.55C9.14168 3.11667 9.33751 2.75 9.66251 2.45C9.98751 2.15 10.375 2 10.825 2H13.175C13.625 2 14.0125 2.15 14.3375 2.45C14.6625 2.75 14.8583 3.11667 14.925 3.55L15.15 5.2C15.3667 5.28333 15.5708 5.38333 15.7625 5.5C15.9542 5.61667 16.1417 5.74167 16.325 5.875L17.875 5.225C18.2917 5.04167 18.7083 5.025 19.125 5.175C19.5417 5.325 19.8667 5.59167 20.1 5.975L21.275 8.025C21.5083 8.40833 21.575 8.81667 21.475 9.25C21.375 9.68333 21.15 10.0417 20.8 10.325L19.475 11.325C19.4917 11.4417 19.5 11.5542 19.5 11.6625V12.3375C19.5 12.4458 19.4833 12.5583 19.45 12.675L20.775 13.675C21.125 13.9583 21.35 14.3167 21.45 14.75C21.55 15.1833 21.4833 15.5917 21.25 15.975L20.05 18.025C19.8167 18.4083 19.4917 18.675 19.075 18.825C18.6583 18.975 18.2417 18.9583 17.825 18.775L16.325 18.125C16.1417 18.2583 15.95 18.3833 15.75 18.5C15.55 18.6167 15.35 18.7167 15.15 18.8L14.925 20.45C14.8583 20.8833 14.6625 21.25 14.3375 21.55C14.0125 21.85 13.625 22 13.175 22H10.825ZM11 20H12.975L13.325 17.35C13.8417 17.2167 14.3208 17.0208 14.7625 16.7625C15.2042 16.5042 15.6083 16.1917 15.975 15.825L18.45 16.85L19.425 15.15L17.275 13.525C17.3583 13.2917 17.4167 13.0458 17.45 12.7875C17.4833 12.5292 17.5 12.2667 17.5 12C17.5 11.7333 17.4833 11.4708 17.45 11.2125C17.4167 10.9542 17.3583 10.7083 17.275 10.475L19.425 8.85L18.45 7.15L15.975 8.2C15.6083 7.81667 15.2042 7.49583 14.7625 7.2375C14.3208 6.97917 13.8417 6.78333 13.325 6.65L13 4H11.025L10.675 6.65C10.1583 6.78333 9.67918 6.97917 9.23751 7.2375C8.79584 7.49583 8.39168 7.80833 8.02501 8.175L5.55001 7.15L4.57501 8.85L6.72501 10.45C6.64168 10.7 6.58334 10.95 6.55001 11.2C6.51668 11.45 6.50001 11.7167 6.50001 12C6.50001 12.2667 6.51668 12.525 6.55001 12.775C6.58334 13.025 6.64168 13.275 6.72501 13.525L4.57501 15.15L5.55001 16.85L8.02501 15.8C8.39168 16.1833 8.79584 16.5042 9.23751 16.7625C9.67918 17.0208 10.1583 17.2167 10.675 17.35L11 20ZM12.05 15.5C13.0167 15.5 13.8417 15.1583 14.525 14.475C15.2083 13.7917 15.55 12.9667 15.55 12C15.55 11.0333 15.2083 10.2083 14.525 9.525C13.8417 8.84167 13.0167 8.5 12.05 8.5C11.0667 8.5 10.2375 8.84167 9.56251 9.525C8.88751 10.2083 8.55001 11.0333 8.55001 12C8.55001 12.9667 8.88751 13.7917 9.56251 14.475C10.2375 15.1583 11.0667 15.5 12.05 15.5Z" fill="#C4C6CF"/>
</g>
</svg>
