<svg width="24" height="24" viewBox="0 0 24 24" fill="none" xmlns="http://www.w3.org/2000/svg">
<path d="M10.0841 13.654H19.1604V14.2727H10.0841V13.654ZM10.0841 11.09H19.1604V11.7087H10.0841V11.09ZM7.71492 6.25667H19.3325L20.2575 5.08333C20.2575 5.08333 21.3546 5.93667 22 6.534C21.957 6.76867 21.7419 6.87533 21.4407 6.87533H7.88702L7.71492 6.25667ZM14.037 13.9491L15.2236 13.8628V20.4167C15.2236 21.4633 14.8774 21.9167 12.9446 22C12.9231 21.6587 12.7201 21.3587 12.4404 21.1667C12.1392 20.9533 11.7493 20.69 10.7597 20.5833C10.7597 20.5833 12.829 20.5833 13.2807 20.5833C13.668 20.5833 13.953 20.4167 14.037 20V13.9491ZM9.46028 7.84733L10.8156 8.466H18.2387L19.1604 7.66666L20.5076 9.08467H19.6551V14.806C19.6551 14.8913 19.2034 15.19 18.6871 15.19H18.5365V9.08467H10.5789V15.0193C10.5789 15.1047 10.2132 15.382 9.63237 15.382H9.46028V7.84733ZM11.1799 15.75L12.6085 16.75C11.6841 18.25 10.0875 20.2213 7.23035 21.0607C9.24714 19.394 10.7597 17.5313 11.1799 15.75Z" fill="#C4C6CF"/>
<path d="M16.3059 16.2678C22 17.3438 22.0202 20.4345 20.1714 20.4345C19.7513 18.8333 18.2387 17.5625 16.3059 16.2678Z" fill="#C4C6CF"/>
<path d="M8.23531 14.2727C5.34917 21.1667 4.04882 20.8125 2 18.9688C3.76338 18.5938 5.09544 18.3438 8.23531 14.2727Z" fill="#C4C6CF"/>
<path d="M2 4.25C7.46945 4.78125 7.33099 8.7171 5.61342 7.91667C5.43008 6.375 3.58189 4.875 2 4.25Z" fill="#C4C6CF"/>
<path d="M11.4957 2C15.9468 3.25 15.8181 6.784 13.9075 6.21875C14.2096 4.875 13.3327 3.1875 11.4957 2Z" fill="#C4C6CF"/>
<path d="M2 9.25C7.0552 9.25 7.71492 12.875 5.78149 12.5833C5.11142 10.8438 3.70935 10.0625 2 9.25Z" fill="#C4C6CF"/>
</svg>
