<svg width="18" height="18" viewBox="0 0 18 18" fill="none" xmlns="http://www.w3.org/2000/svg">
<path d="M2 0C0.89543 0 0 0.895431 0 2V16C0 17.1046 0.895431 18 2 18H16C17.1046 18 18 17.1046 18 16V2C18 0.89543 17.1046 0 16 0H2ZM16 14C16 15.1046 15.1046 16 14 16H4C2.89543 16 2 15.1046 2 14V4C2 2.89543 2.89543 2 4 2H14C15.1046 2 16 2.89543 16 4V14ZM4 6C4 4.89543 4.89543 4 6 4H11.1716C11.702 4 12.2107 4.21071 12.5858 4.58579L13.6893 5.68934C13.8883 5.88825 14 6.15804 14 6.43934V6.43934C14 7.02513 13.5251 7.5 12.9393 7.5V7.5C12.658 7.5 12.3883 7.38825 12.1893 7.18934L11.5858 6.58579C11.2107 6.21071 10.702 6 10.1716 6H8C6.89543 6 6 6.89543 6 8V8V10V13C6 13.5523 5.55228 14 5 14V14C4.44772 14 4 13.5523 4 13V6ZM6 8H9.67157C10.202 8 10.7107 8.21071 11.0858 8.58579L13.4822 10.9822C13.8138 11.3138 14 11.7634 14 12.2322V13C14 13.5523 13.5523 14 13 14V14C12.4477 14 12 13.5523 12 13V12.5858C12 12.2107 11.851 11.851 11.5858 11.5858L10.5858 10.5858C10.2107 10.2107 9.70201 10 9.17157 10H6V8Z" fill="#C7C6CA"/>
</svg>
