<svg width="24" height="24" viewBox="0 0 24 24" fill="none" xmlns="http://www.w3.org/2000/svg">
<path d="M5 3C3.89543 3 3 3.89543 3 5V19C3 20.1046 3.89543 21 5 21H19C20.1046 21 21 20.1046 21 19V5C21 3.89543 20.1046 3 19 3H5ZM19 17C19 18.1046 18.1046 19 17 19H7C5.89543 19 5 18.1046 5 17V7C5 5.89543 5.89543 5 7 5H17C18.1046 5 19 5.89543 19 7V17ZM7 9C7 7.89543 7.89543 7 9 7H14.1716C14.702 7 15.2107 7.21071 15.5858 7.58579L16.6893 8.68934C16.8883 8.88825 17 9.15804 17 9.43934C17 10.0251 16.5251 10.5 15.9393 10.5C15.658 10.5 15.3883 10.3883 15.1893 10.1893L14.5858 9.58579C14.2107 9.21071 13.702 9 13.1716 9H11C9.89543 9 9 9.89543 9 11V13V16C9 16.5523 8.55228 17 8 17C7.44772 17 7 16.5523 7 16V9ZM9 11H12.6716C13.202 11 13.7107 11.2107 14.0858 11.5858L16.4822 13.9822C16.8138 14.3138 17 14.7634 17 15.2322V16C17 16.5523 16.5523 17 16 17C15.4477 17 15 16.5523 15 16V15.5858C15 15.2107 14.851 14.851 14.5858 14.5858L13.5858 13.5858C13.2107 13.2107 12.702 13 12.1716 13H9V11Z" fill="#C4C6CF"/>
</svg>
