<svg width="24" height="25" viewBox="0 0 24 25" fill="none" xmlns="http://www.w3.org/2000/svg">
<mask id="mask0_54784_24522" style="mask-type:alpha" maskUnits="userSpaceOnUse" x="0" y="0" width="24" height="25">
<rect y="0.5" width="24" height="24" fill="#D9D9D9"/>
</mask>
<g mask="url(#mask0_54784_24522)">
<path d="M12 13.9L9.08315 16.825C8.89875 17.0083 8.66406 17.1 8.37908 17.1C8.09409 17.1 7.8594 17.0083 7.675 16.825C7.49167 16.6417 7.4 16.4083 7.4 16.125C7.4 15.8417 7.49167 15.6083 7.675 15.425L10.6 12.5L7.675 9.60819C7.49167 9.42377 7.4 9.18907 7.4 8.90409C7.4 8.61909 7.49167 8.38439 7.675 8.19999C7.85833 8.01665 8.09167 7.92499 8.375 7.92499C8.65833 7.92499 8.89167 8.01665 9.075 8.19999L12 11.125L14.8918 8.19999C15.0762 8.01665 15.3109 7.92499 15.5959 7.92499C15.8809 7.92499 16.1156 8.01665 16.3 8.19999C16.5 8.39999 16.6 8.63749 16.6 8.91249C16.6 9.18749 16.5 9.41665 16.3 9.59999L13.375 12.5L16.3 15.4168C16.4833 15.6012 16.575 15.8359 16.575 16.1209C16.575 16.4059 16.4833 16.6406 16.3 16.825C16.1 17.025 15.8625 17.125 15.5875 17.125C15.3125 17.125 15.0833 17.025 14.9 16.825L12 13.9Z" fill="#A9C7FF"/>
</g>
</svg>
