<svg width="24" height="24" viewBox="0 0 24 24" fill="none" xmlns="http://www.w3.org/2000/svg">
<mask id="mask0_54724_24216" style="mask-type:alpha" maskUnits="userSpaceOnUse" x="0" y="0" width="24" height="24">
<rect width="24" height="24" fill="#D9D9D9"/>
</mask>
<g mask="url(#mask0_54724_24216)">
<path d="M6.225 17.775H4.1875C3.92917 17.775 3.70833 17.6833 3.525 17.5C3.34167 17.3167 3.25 17.0958 3.25 16.8375C3.25 16.5792 3.34167 16.3583 3.525 16.175C3.70833 15.9917 3.92917 15.9 4.1875 15.9H7.1625C7.42083 15.9 7.64167 15.9917 7.825 16.175C8.00833 16.3583 8.1 16.5792 8.1 16.8375V19.8125C8.1 20.0708 8.00833 20.2917 7.825 20.475C7.64167 20.6583 7.42083 20.75 7.1625 20.75C6.90417 20.75 6.68333 20.6583 6.5 20.475C6.31667 20.2917 6.225 20.0708 6.225 19.8125V17.775ZM17.7875 17.775V19.8125C17.7875 20.0708 17.6958 20.2917 17.5125 20.475C17.3292 20.6583 17.1083 20.75 16.85 20.75C16.5917 20.75 16.3708 20.6583 16.1875 20.475C16.0042 20.2917 15.9125 20.0708 15.9125 19.8125V16.8375C15.9125 16.5792 16.0042 16.3583 16.1875 16.175C16.3708 15.9917 16.5917 15.9 16.85 15.9H19.8125C20.0708 15.9 20.2917 15.9917 20.475 16.175C20.6583 16.3583 20.75 16.5792 20.75 16.8375C20.75 17.0958 20.6583 17.3167 20.475 17.5C20.2917 17.6833 20.0708 17.775 19.8125 17.775H17.7875ZM6.225 6.2125V4.1875C6.225 3.92917 6.31667 3.70833 6.5 3.525C6.68333 3.34167 6.90417 3.25 7.1625 3.25C7.42083 3.25 7.64167 3.34167 7.825 3.525C8.00833 3.70833 8.1 3.92917 8.1 4.1875V7.15C8.1 7.40833 8.00833 7.62917 7.825 7.8125C7.64167 7.99583 7.42083 8.0875 7.1625 8.0875H4.1875C3.92917 8.0875 3.70833 7.99583 3.525 7.8125C3.34167 7.62917 3.25 7.40833 3.25 7.15C3.25 6.89167 3.34167 6.67083 3.525 6.4875C3.70833 6.30417 3.92917 6.2125 4.1875 6.2125H6.225ZM17.7875 6.2125H19.8125C20.0708 6.2125 20.2917 6.30417 20.475 6.4875C20.6583 6.67083 20.75 6.89167 20.75 7.15C20.75 7.40833 20.6583 7.62917 20.475 7.8125C20.2917 7.99583 20.0708 8.0875 19.8125 8.0875H16.85C16.5917 8.0875 16.3708 7.99583 16.1875 7.8125C16.0042 7.62917 15.9125 7.40833 15.9125 7.15V4.1875C15.9125 3.92917 16.0042 3.70833 16.1875 3.525C16.3708 3.34167 16.5917 3.25 16.85 3.25C17.1083 3.25 17.3292 3.34167 17.5125 3.525C17.6958 3.70833 17.7875 3.92917 17.7875 4.1875V6.2125Z" fill="white"/>
</g>
</svg>
