<svg width="20" height="20" viewBox="0 0 20 20" fill="none" xmlns="http://www.w3.org/2000/svg">
<mask id="mask0_55052_25712" style="mask-type:alpha" maskUnits="userSpaceOnUse" x="-2" y="-2" width="24" height="24">
<rect x="-2" y="-2" width="24" height="24" fill="#D9D9D9"/>
</mask>
<g mask="url(#mask0_55052_25712)">
<path d="M9.99999 14.9L7.59999 17.3C7.41665 17.4834 7.18332 17.575 6.89999 17.575C6.61665 17.575 6.38332 17.4834 6.19999 17.3C6.01665 17.1167 5.92499 16.8834 5.92499 16.6C5.92499 16.3167 6.01665 16.0834 6.19999 15.9L9.29999 12.8C9.39999 12.7 9.50832 12.6292 9.62499 12.5875C9.74165 12.5459 9.86665 12.525 9.99999 12.525C10.1333 12.525 10.2583 12.5459 10.375 12.5875C10.4917 12.6292 10.6 12.7 10.7 12.8L13.8 15.9C13.9833 16.0834 14.075 16.3167 14.075 16.6C14.075 16.8834 13.9833 17.1167 13.8 17.3C13.6167 17.4834 13.3833 17.575 13.1 17.575C12.8167 17.575 12.5833 17.4834 12.4 17.3L9.99999 14.9ZM9.99999 5.10005L12.4 2.70005C12.5833 2.51672 12.8167 2.42505 13.1 2.42505C13.3833 2.42505 13.6167 2.51672 13.8 2.70005C13.9833 2.88338 14.075 3.11672 14.075 3.40005C14.075 3.68338 13.9833 3.91672 13.8 4.10005L10.7 7.20005C10.6 7.30005 10.4917 7.37088 10.375 7.41255C10.2583 7.45422 10.1333 7.47505 9.99999 7.47505C9.86665 7.47505 9.74165 7.45422 9.62499 7.41255C9.50832 7.37088 9.39999 7.30005 9.29999 7.20005L6.19999 4.10005C6.01665 3.91672 5.92499 3.68338 5.92499 3.40005C5.92499 3.11672 6.01665 2.88338 6.19999 2.70005C6.38332 2.51672 6.61665 2.42505 6.89999 2.42505C7.18332 2.42505 7.41665 2.51672 7.59999 2.70005L9.99999 5.10005Z" fill="white"/>
</g>
</svg>
