<svg width="24" height="24" viewBox="0 0 24 24" fill="none" xmlns="http://www.w3.org/2000/svg">
<mask id="mask0_54701_155" style="mask-type:alpha" maskUnits="userSpaceOnUse" x="0" y="0" width="24" height="24">
<rect width="24" height="24" fill="#D9D9D9"/>
</mask>
<g mask="url(#mask0_54701_155)">
<path d="M6.125 12.8625C5.87708 12.8625 5.66927 12.7784 5.50155 12.6103C5.33385 12.4422 5.25 12.2338 5.25 11.9853C5.25 11.7368 5.33385 11.5292 5.50155 11.3625C5.66927 11.1958 5.87708 11.1125 6.125 11.1125H17.875C18.1229 11.1125 18.3307 11.1966 18.4985 11.3647C18.6662 11.5328 18.75 11.7411 18.75 11.9897C18.75 12.2382 18.6662 12.4458 18.4985 12.6125C18.3307 12.7792 18.1229 12.8625 17.875 12.8625H6.125Z" fill="#C4C6CF"/>
</g>
</svg>
