<svg width="24" height="24" viewBox="0 0 24 24" fill="none" xmlns="http://www.w3.org/2000/svg">
<mask id="mask0_54701_178" style="mask-type:alpha" maskUnits="userSpaceOnUse" x="0" y="0" width="24" height="24">
<rect width="24" height="24" fill="#D9D9D9"/>
</mask>
<g mask="url(#mask0_54701_178)">
<path d="M12 13.325L7.13749 18.1875C6.95415 18.3708 6.73332 18.4604 6.47499 18.4562C6.21665 18.4521 5.99582 18.3583 5.81249 18.175C5.63749 17.9917 5.55207 17.7729 5.55624 17.5187C5.5604 17.2646 5.64999 17.05 5.82499 16.875L10.675 12L5.82499 7.125C5.64999 6.95 5.56249 6.73542 5.56249 6.48125C5.56249 6.22708 5.64999 6.00833 5.82499 5.825C5.99999 5.64167 6.21665 5.54792 6.47499 5.54375C6.73332 5.53958 6.95415 5.62917 7.13749 5.8125L12 10.675L16.8625 5.8125C17.0458 5.62917 17.2667 5.53958 17.525 5.54375C17.7833 5.54792 18.0042 5.64167 18.1875 5.825C18.3625 6.00833 18.4479 6.22708 18.4437 6.48125C18.4396 6.73542 18.35 6.95 18.175 7.125L13.325 12L18.175 16.875C18.35 17.05 18.4375 17.2646 18.4375 17.5187C18.4375 17.7729 18.35 17.9917 18.175 18.175C18 18.3583 17.7833 18.4521 17.525 18.4562C17.2667 18.4604 17.0458 18.3708 16.8625 18.1875L12 13.325Z" fill="#C4C6CF"/>
</g>
</svg>
