<svg width="24" height="24" viewBox="0 0 24 24" fill="none" xmlns="http://www.w3.org/2000/svg">
<path d="M3 9H21V12H3V9ZM4.05771 3H20.1123V5.87838H4.05771V3ZM11 11H14C14 11 13.5 16 14 17C14.5 18 15 18 15 18H17C17 18 17.5 18 18 17C18.5 16 18 15 18 15H21C21 15 22 17 21 19C20 21 19 21 19 21H13C13 21 12.5 20.9932 11.5 18.9932C10.5 16.9932 11 11 11 11ZM10 4H13C12.937 5.08108 13 10 13 10C12.8363 11.0541 12.1731 12.723 11.8206 13.723C11.468 14.7095 11 16 9 18C7 20 5 21 5 21L3 18.9932C3 18.9932 4.5 18 7 16C9.5 14 10 10 10 10C10 10 9.96222 4.93243 10 4Z" fill="#fff"/>
</svg>
