<svg width="24" height="24" viewBox="0 0 24 24" fill="none" xmlns="http://www.w3.org/2000/svg">
<mask id="mask0_54701_169" style="mask-type:alpha" maskUnits="userSpaceOnUse" x="0" y="0" width="24" height="24">
<rect width="24" height="24" fill="#D9D9D9"/>
</mask>
<g mask="url(#mask0_54701_169)">
<path d="M5.125 18.875H7.1625C7.42083 18.875 7.64167 18.9667 7.825 19.15C8.00833 19.3333 8.1 19.5542 8.1 19.8125C8.1 20.0708 8.00833 20.2917 7.825 20.475C7.64167 20.6583 7.42083 20.75 7.1625 20.75H4.1875C3.92917 20.75 3.70833 20.6583 3.525 20.475C3.34167 20.2917 3.25 20.0708 3.25 19.8125V16.8375C3.25 16.5792 3.34167 16.3583 3.525 16.175C3.70833 15.9917 3.92917 15.9 4.1875 15.9C4.44583 15.9 4.66667 15.9917 4.85 16.175C5.03333 16.3583 5.125 16.5792 5.125 16.8375V18.875ZM18.875 18.875V16.8375C18.875 16.5792 18.9667 16.3583 19.15 16.175C19.3333 15.9917 19.5542 15.9 19.8125 15.9C20.0708 15.9 20.2917 15.9917 20.475 16.175C20.6583 16.3583 20.75 16.5792 20.75 16.8375V19.8125C20.75 20.0708 20.6583 20.2917 20.475 20.475C20.2917 20.6583 20.0708 20.75 19.8125 20.75H16.85C16.5917 20.75 16.3708 20.6583 16.1875 20.475C16.0042 20.2917 15.9125 20.0708 15.9125 19.8125C15.9125 19.5542 16.0042 19.3333 16.1875 19.15C16.3708 18.9667 16.5917 18.875 16.85 18.875H18.875ZM5.125 5.125V7.15C5.125 7.40833 5.03333 7.62917 4.85 7.8125C4.66667 7.99583 4.44583 8.0875 4.1875 8.0875C3.92917 8.0875 3.70833 7.99583 3.525 7.8125C3.34167 7.62917 3.25 7.40833 3.25 7.15V4.1875C3.25 3.92917 3.34167 3.70833 3.525 3.525C3.70833 3.34167 3.92917 3.25 4.1875 3.25H7.1625C7.42083 3.25 7.64167 3.34167 7.825 3.525C8.00833 3.70833 8.1 3.92917 8.1 4.1875C8.1 4.44583 8.00833 4.66667 7.825 4.85C7.64167 5.03333 7.42083 5.125 7.1625 5.125H5.125ZM18.875 5.125H16.85C16.5917 5.125 16.3708 5.03333 16.1875 4.85C16.0042 4.66667 15.9125 4.44583 15.9125 4.1875C15.9125 3.92917 16.0042 3.70833 16.1875 3.525C16.3708 3.34167 16.5917 3.25 16.85 3.25H19.8125C20.0708 3.25 20.2917 3.34167 20.475 3.525C20.6583 3.70833 20.75 3.92917 20.75 4.1875V7.15C20.75 7.40833 20.6583 7.62917 20.475 7.8125C20.2917 7.99583 20.0708 8.0875 19.8125 8.0875C19.5542 8.0875 19.3333 7.99583 19.15 7.8125C18.9667 7.62917 18.875 7.40833 18.875 7.15V5.125Z" fill="#C4C6CF"/>
</g>
</svg>
