<svg width="192" height="264" viewBox="0 0 192 264" fill="none" xmlns="http://www.w3.org/2000/svg">
<g clip-path="url(#clip0_55063_631)">
<path d="M37.6122 45.1351C52.3965 25.7782 86.6064 17.701 97.2515 16.3467C109.49 15.5003 128.514 15.2603 143.525 27.2653C155.909 37.1682 159.385 40.977 167.423 59.767C174.201 75.6117 176.547 92.5227 175.896 112.075C173.723 132.388 166.554 156.511 155.909 167.175C155.909 167.175 169.378 143.815 163.078 124.263C164.599 145.846 147.001 157.475 135.705 165.398C135.705 165.398 144.177 154.733 145.915 148.131M37.6122 45.1351C9.70203 67.6849 14.1555 97.0196 21.7189 108.793M37.6122 45.1351C21.5251 78.0618 22.4201 98.1862 32.1729 126.954M38.2307 148.705C41.3319 161.078 43.1012 167.6 45.6822 175.7C53.0624 176.798 61.2951 174.608 67.4973 173.523C65.0207 167.703 63.2467 165.179 61.4144 159.304M38.2307 148.705C37.7916 146.953 37.0368 144 36.474 142.119M38.2307 148.705C45.1083 148.503 47.1831 147.992 53.8718 146.754M61.4144 159.304C65.5421 162.605 84.0428 171.187 86.8236 170.984C85.5201 169.63 82.4786 162.097 82.4786 160.065C85.5201 162.52 97.295 171.492 106.159 170.476C104.203 167.937 100.945 160.065 100.945 160.065C101.814 161.25 116.804 167.429 121.366 167.175C121.366 167.175 133.098 147.116 145.915 148.131M61.4144 159.304L60.7281 153.971C58.0765 152.127 55.5386 149.931 53.8718 146.754M145.915 148.131C146.75 145.012 147.561 141.849 147.436 137.213C142.439 137.213 140.441 138.431 134.184 140.26C134.184 140.26 133.822 138.652 133.749 134.42C130.491 142.545 128.535 139.752 117.89 143.815C123.321 127.31 127.402 113.489 128.923 101.555M49.1007 115.122C47.1454 115.122 45.8419 115.629 43.8867 116.391M49.1007 115.122L64.5532 116.391C61.4144 99.8134 60.3281 66.288 71.1348 52.9178C64.3799 73.9932 64.447 88.9678 70.7472 112.075C76.3232 111.059 90.343 109.637 93.1238 112.075C90.2996 88.2061 90.6872 63.4174 97.6392 45.1351C99.0151 59.3546 97.9033 80.8424 113.762 102.172C110.938 94.2155 108.94 76.3734 107.897 62.5602C113.736 91.2531 121.319 92.414 128.923 101.555M49.1007 115.122C48.8237 118.79 48.7079 121.968 48.8399 125.387M128.923 101.555C129.575 90.8905 130.016 66.6229 124.454 50.372M32.1729 126.954L48.8399 125.387M32.1729 126.954C32.1729 126.954 33.5012 131.581 33.9296 133.34M48.8399 125.387C48.9104 127.213 49.377 131.581 49.377 131.581M33.9296 133.34C38.7751 132.741 43.8021 131.942 49.377 131.581M33.9296 133.34C33.9296 133.34 35.3012 138.2 36.474 142.119M49.377 131.581C49.7448 134.847 50.3389 137.517 51.1766 140.322M36.474 142.119C43.0028 142.077 45.1435 141.577 51.1766 140.322M51.1766 140.322C51.8353 142.528 52.9035 144.908 53.8718 146.754" stroke="#43474E" stroke-width="4" stroke-linecap="square"/>
<path d="M19.232 225V201.544H26.56C28.16 201.544 29.568 201.757 30.784 202.184C32.0213 202.589 32.992 203.272 33.696 204.232C34.4 205.192 34.752 206.483 34.752 208.104C34.752 209.661 34.4 210.963 33.696 212.008C32.992 213.032 32.0213 213.8 30.784 214.312C29.568 214.803 28.16 215.048 26.56 215.048H22.176V225H19.232ZM22.176 212.68H26.112C27.9467 212.68 29.3547 212.307 30.336 211.56C31.3173 210.792 31.808 209.64 31.808 208.104C31.808 206.568 31.3173 205.491 30.336 204.872C29.3547 204.253 27.9467 203.944 26.112 203.944H22.176V212.68ZM32.096 225L25.952 214.28L28.288 212.712L35.424 225H32.096ZM39.5445 232.488C39.1392 232.488 38.7658 232.456 38.4245 232.392C38.0832 232.328 37.7738 232.243 37.4965 232.136L38.0725 229.8C38.2432 229.864 38.4458 229.928 38.6805 229.992C38.9152 230.056 39.1605 230.088 39.4165 230.088C40.3978 230.088 41.1978 229.725 41.8165 229C42.4565 228.296 42.9578 227.411 43.3205 226.344L43.7045 225.032L36.7285 207.624H39.7685L43.2885 217.256C43.5658 218.024 43.8432 218.835 44.1205 219.688C44.4192 220.541 44.7178 221.373 45.0165 222.184H45.1765C45.4112 221.373 45.6458 220.552 45.8805 219.72C46.1365 218.867 46.3712 218.045 46.5845 217.256L49.7205 207.624H52.5685L46.0405 226.472C45.6352 227.603 45.1445 228.616 44.5685 229.512C43.9925 230.429 43.2992 231.155 42.4885 231.688C41.6778 232.221 40.6965 232.488 39.5445 232.488ZM62.4773 225.416C61.0693 225.416 59.7466 225.064 58.5093 224.36C57.2719 223.635 56.2799 222.6 55.5333 221.256C54.8079 219.891 54.4453 218.248 54.4453 216.328C54.4453 214.387 54.8079 212.744 55.5333 211.4C56.2799 210.035 57.2719 208.989 58.5093 208.264C59.7466 207.539 61.0693 207.176 62.4773 207.176C63.5439 207.176 64.5573 207.379 65.5173 207.784C66.4986 208.189 67.3626 208.787 68.1093 209.576C68.8559 210.365 69.4426 211.325 69.8693 212.456C70.2959 213.587 70.5093 214.877 70.5093 216.328C70.5093 218.248 70.1359 219.891 69.3893 221.256C68.6426 222.6 67.6613 223.635 66.4453 224.36C65.2293 225.064 63.9066 225.416 62.4773 225.416ZM62.4773 222.984C63.4799 222.984 64.3546 222.707 65.1013 222.152C65.8693 221.597 66.4666 220.819 66.8933 219.816C67.3199 218.813 67.5333 217.651 67.5333 216.328C67.5333 214.984 67.3199 213.811 66.8933 212.808C66.4666 211.805 65.8693 211.027 65.1013 210.472C64.3546 209.917 63.4799 209.64 62.4773 209.64C61.4746 209.64 60.5893 209.917 59.8213 210.472C59.0746 211.027 58.4879 211.805 58.0613 212.808C57.6559 213.811 57.4533 214.984 57.4533 216.328C57.4533 217.651 57.6559 218.813 58.0613 219.816C58.4879 220.819 59.0746 221.597 59.8213 222.152C60.5893 222.707 61.4746 222.984 62.4773 222.984Z" fill="#43474E"/>
<path d="M23.944 258.312C23.352 258.312 22.728 258.168 22.072 257.88C21.416 257.592 20.808 257.184 20.248 256.656H20.152L19.96 258H18.208V238.896H20.416V244.128L20.32 246.456C20.912 245.944 21.56 245.512 22.264 245.16C22.968 244.808 23.688 244.632 24.424 244.632C25.544 244.632 26.488 244.912 27.256 245.472C28.024 246.016 28.608 246.784 29.008 247.776C29.408 248.768 29.608 249.936 29.608 251.28C29.608 252.752 29.336 254.016 28.792 255.072C28.264 256.128 27.568 256.936 26.704 257.496C25.856 258.04 24.936 258.312 23.944 258.312ZM23.584 256.464C24.304 256.464 24.944 256.264 25.504 255.864C26.08 255.448 26.528 254.856 26.848 254.088C27.168 253.304 27.328 252.376 27.328 251.304C27.328 250.344 27.208 249.504 26.968 248.784C26.744 248.048 26.384 247.48 25.888 247.08C25.392 246.68 24.72 246.48 23.872 246.48C23.328 246.48 22.768 246.632 22.192 246.936C21.616 247.24 21.024 247.68 20.416 248.256V255.12C20.976 255.616 21.536 255.968 22.096 256.176C22.672 256.368 23.168 256.464 23.584 256.464ZM33.0959 263.616C32.7919 263.616 32.5119 263.592 32.2559 263.544C31.9999 263.496 31.7679 263.432 31.5599 263.352L31.9919 261.6C32.1199 261.648 32.2719 261.696 32.4479 261.744C32.6239 261.792 32.8079 261.816 32.9999 261.816C33.7359 261.816 34.3359 261.544 34.7999 261C35.2799 260.472 35.6559 259.808 35.9279 259.008L36.2159 258.024L30.9839 244.968H33.2639L35.9039 252.192C36.1119 252.768 36.3199 253.376 36.5279 254.016C36.7519 254.656 36.9759 255.28 37.1999 255.888H37.3199C37.4959 255.28 37.6719 254.664 37.8479 254.04C38.0399 253.4 38.2159 252.784 38.3759 252.192L40.7279 244.968H42.8639L37.9679 259.104C37.6639 259.952 37.2959 260.712 36.8639 261.384C36.4319 262.072 35.9119 262.616 35.3039 263.016C34.6959 263.416 33.9599 263.616 33.0959 263.616ZM50.9787 258V240.408H61.1067V242.28H53.1867V247.8H59.8587V249.696H53.1867V256.104H61.3707V258H50.9787ZM67.8955 258.312C67.1755 258.312 66.5275 258.168 65.9515 257.88C65.3755 257.592 64.9195 257.176 64.5835 256.632C64.2635 256.072 64.1035 255.4 64.1035 254.616C64.1035 253.192 64.7355 252.104 65.9995 251.352C67.2795 250.584 69.3115 250.048 72.0955 249.744C72.0955 249.184 72.0155 248.656 71.8555 248.16C71.7115 247.648 71.4475 247.24 71.0635 246.936C70.6795 246.616 70.1275 246.456 69.4075 246.456C68.6555 246.456 67.9435 246.608 67.2715 246.912C66.6155 247.2 66.0235 247.512 65.4955 247.848L64.6555 246.336C65.0555 246.08 65.5195 245.824 66.0475 245.568C66.5755 245.296 67.1515 245.072 67.7755 244.896C68.3995 244.72 69.0635 244.632 69.7675 244.632C70.8235 244.632 71.6795 244.856 72.3355 245.304C73.0075 245.752 73.4955 246.376 73.7995 247.176C74.1195 247.96 74.2795 248.896 74.2795 249.984V258H72.4795L72.2875 256.44H72.2155C71.6075 256.952 70.9355 257.392 70.1995 257.76C69.4795 258.128 68.7115 258.312 67.8955 258.312ZM68.5195 256.536C69.1435 256.536 69.7355 256.392 70.2955 256.104C70.8715 255.816 71.4715 255.392 72.0955 254.832V251.208C70.6395 251.368 69.4795 251.6 68.6155 251.904C67.7515 252.192 67.1355 252.552 66.7675 252.984C66.3995 253.4 66.2155 253.896 66.2155 254.472C66.2155 255.224 66.4395 255.76 66.8875 256.08C67.3355 256.384 67.8795 256.536 68.5195 256.536ZM78.4189 258V244.968H80.2189L80.4349 247.344H80.4829C80.9309 246.512 81.4749 245.856 82.1149 245.376C82.7709 244.88 83.4589 244.632 84.1789 244.632C84.4829 244.632 84.7389 244.656 84.9469 244.704C85.1709 244.736 85.3789 244.808 85.5709 244.92L85.1629 246.816C84.9389 246.752 84.7389 246.704 84.5629 246.672C84.3869 246.624 84.1629 246.6 83.8909 246.6C83.3629 246.6 82.7949 246.832 82.1869 247.296C81.5789 247.744 81.0589 248.52 80.6269 249.624V258H78.4189ZM86.1916 258V256.824L93.0556 246.744H86.9356V244.968H95.8396V246.144L88.9516 256.224H96.0556V258H86.1916ZM102.438 258.312C101.062 258.312 100.046 257.88 99.3901 257.016C98.7501 256.152 98.4301 254.888 98.4301 253.224V244.968H100.638V252.96C100.638 254.16 100.83 255.04 101.214 255.6C101.598 256.144 102.222 256.416 103.086 256.416C103.758 256.416 104.358 256.24 104.886 255.888C105.414 255.536 105.99 254.976 106.614 254.208V244.968H108.798V258H106.974L106.806 255.96H106.734C106.126 256.664 105.478 257.232 104.79 257.664C104.118 258.096 103.334 258.312 102.438 258.312ZM125.407 258.312C124.319 258.312 123.303 258.112 122.359 257.712C121.431 257.296 120.623 256.696 119.935 255.912C119.247 255.128 118.711 254.176 118.327 253.056C117.943 251.92 117.751 250.64 117.751 249.216C117.751 247.792 117.943 246.52 118.327 245.4C118.727 244.264 119.279 243.304 119.983 242.52C120.687 241.736 121.511 241.136 122.455 240.72C123.399 240.304 124.431 240.096 125.551 240.096C126.623 240.096 127.567 240.32 128.383 240.768C129.199 241.2 129.863 241.696 130.375 242.256L129.175 243.696C128.711 243.2 128.183 242.8 127.591 242.496C126.999 242.192 126.327 242.04 125.575 242.04C124.471 242.04 123.503 242.328 122.671 242.904C121.839 243.48 121.191 244.304 120.727 245.376C120.263 246.432 120.031 247.688 120.031 249.144C120.031 250.632 120.255 251.92 120.703 253.008C121.151 254.08 121.783 254.912 122.599 255.504C123.415 256.08 124.383 256.368 125.503 256.368C126.335 256.368 127.079 256.192 127.735 255.84C128.407 255.488 129.023 255 129.583 254.376L130.807 255.792C130.119 256.592 129.335 257.216 128.455 257.664C127.575 258.096 126.559 258.312 125.407 258.312ZM133.872 258V238.896H136.08V244.128L135.984 246.816C136.592 246.208 137.24 245.696 137.928 245.28C138.616 244.848 139.408 244.632 140.304 244.632C141.68 244.632 142.688 245.072 143.328 245.952C143.968 246.816 144.288 248.08 144.288 249.744V258H142.104V250.032C142.104 248.8 141.904 247.912 141.504 247.368C141.12 246.824 140.496 246.552 139.632 246.552C138.96 246.552 138.36 246.72 137.832 247.056C137.304 247.392 136.72 247.888 136.08 248.544V258H133.872ZM151.45 258.312C150.73 258.312 150.082 258.168 149.506 257.88C148.93 257.592 148.474 257.176 148.138 256.632C147.818 256.072 147.658 255.4 147.658 254.616C147.658 253.192 148.29 252.104 149.554 251.352C150.834 250.584 152.866 250.048 155.65 249.744C155.65 249.184 155.57 248.656 155.41 248.16C155.266 247.648 155.002 247.24 154.618 246.936C154.234 246.616 153.682 246.456 152.962 246.456C152.21 246.456 151.498 246.608 150.826 246.912C150.17 247.2 149.578 247.512 149.05 247.848L148.21 246.336C148.61 246.08 149.074 245.824 149.602 245.568C150.13 245.296 150.706 245.072 151.33 244.896C151.954 244.72 152.618 244.632 153.322 244.632C154.378 244.632 155.234 244.856 155.89 245.304C156.562 245.752 157.05 246.376 157.354 247.176C157.674 247.96 157.834 248.896 157.834 249.984V258H156.034L155.842 256.44H155.77C155.162 256.952 154.49 257.392 153.754 257.76C153.034 258.128 152.266 258.312 151.45 258.312ZM152.074 256.536C152.698 256.536 153.29 256.392 153.85 256.104C154.426 255.816 155.026 255.392 155.65 254.832V251.208C154.194 251.368 153.034 251.6 152.17 251.904C151.306 252.192 150.69 252.552 150.322 252.984C149.954 253.4 149.77 253.896 149.77 254.472C149.77 255.224 149.994 255.76 150.442 256.08C150.89 256.384 151.434 256.536 152.074 256.536ZM161.974 258V244.968H163.774L163.99 246.864H164.038C164.662 246.24 165.318 245.712 166.006 245.28C166.71 244.848 167.51 244.632 168.406 244.632C169.782 244.632 170.79 245.072 171.43 245.952C172.07 246.816 172.39 248.08 172.39 249.744V258H170.206V250.032C170.206 248.8 170.006 247.912 169.606 247.368C169.222 246.824 168.598 246.552 167.734 246.552C167.062 246.552 166.462 246.72 165.934 247.056C165.406 247.392 164.822 247.888 164.182 248.544V258H161.974Z" fill="#43474E"/>
</g>
<defs>
<clipPath id="clip0_55063_631">
<rect width="192" height="264" fill="white"/>
</clipPath>
</defs>
</svg>
